solid 
   facet normal 0.000000e+00 1.000000e+00 0.000000e+00
      outer loop
         vertex -7.549517e-15 4.000000e+01 -4.000000e+01
         vertex -3.200000e+00 4.000000e+01 -4.000000e+01
         vertex 6.401156e-16 4.000000e+01 -2.460000e+01
      endloop
   endfacet
   facet normal 0.000000e+00 1.000000e+00 0.000000e+00
      outer loop
         vertex -3.200000e+00 4.000000e+01 -4.000000e+01
         vertex -3.200000e+00 4.000000e+01 4.000000e+01
         vertex 1.140530e-15 4.000000e+01 1.500000e+01
      endloop
   endfacet
   facet normal 0.000000e+00 1.000000e+00 0.000000e+00
      outer loop
         vertex -3.200000e+00 4.000000e+01 4.000000e+01
         vertex 7.549517e-15 4.000000e+01 4.000000e+01
         vertex 4.523930e-15 4.000000e+01 2.460000e+01
      endloop
   endfacet
   facet normal 0.000000e+00 1.000000e+00 0.000000e+00
      outer loop
         vertex 4.523930e-15 4.000000e+01 2.460000e+01
         vertex 6.400000e+00 4.000000e+01 1.820000e+01
         vertex 3.200000e+00 4.000000e+01 1.500000e+01
      endloop
   endfacet
   facet normal 0.000000e+00 1.000000e+00 -0.000000e+00
      outer loop
         vertex 6.400000e+00 4.000000e+01 1.820000e+01
         vertex 6.400000e+00 4.000000e+01 1.180000e+01
         vertex 3.200000e+00 4.000000e+01 1.500000e+01
      endloop
   endfacet
   facet normal 0.000000e+00 1.000000e+00 0.000000e+00
      outer loop
         vertex 6.400000e+00 4.000000e+01 1.180000e+01
         vertex 3.200000e+00 4.000000e+01 1.180000e+01
         vertex 3.200000e+00 4.000000e+01 1.500000e+01
      endloop
   endfacet
   facet normal 0.000000e+00 1.000000e+00 0.000000e+00
      outer loop
         vertex 3.200000e+00 4.000000e+01 1.500000e+01
         vertex 1.140530e-15 4.000000e+01 1.500000e+01
         vertex 4.523930e-15 4.000000e+01 2.460000e+01
      endloop
   endfacet
   facet normal 0.000000e+00 1.000000e+00 -0.000000e+00
      outer loop
         vertex 1.140530e-15 4.000000e+01 1.500000e+01
         vertex -1.293611e-15 4.000000e+01 -1.500000e+01
         vertex -3.200000e+00 4.000000e+01 -4.000000e+01
      endloop
   endfacet
   facet normal 0.000000e+00 1.000000e+00 0.000000e+00
      outer loop
         vertex -1.293611e-15 4.000000e+01 -1.500000e+01
         vertex 3.200000e+00 4.000000e+01 -1.500000e+01
         vertex 6.401156e-16 4.000000e+01 -2.460000e+01
      endloop
   endfacet
   facet normal -0.000000e+00 1.000000e+00 0.000000e+00
      outer loop
         vertex 3.200000e+00 4.000000e+01 -1.500000e+01
         vertex 3.200000e+00 4.000000e+01 -1.180000e+01
         vertex 6.400000e+00 4.000000e+01 -1.180000e+01
      endloop
   endfacet
   facet normal 0.000000e+00 1.000000e+00 -0.000000e+00
      outer loop
         vertex 6.400000e+00 4.000000e+01 -1.180000e+01
         vertex 6.400000e+00 4.000000e+01 -1.820000e+01
         vertex 3.200000e+00 4.000000e+01 -1.500000e+01
      endloop
   endfacet
   facet normal 0.000000e+00 1.000000e+00 0.000000e+00
      outer loop
         vertex 6.400000e+00 4.000000e+01 -1.820000e+01
         vertex 6.401156e-16 4.000000e+01 -2.460000e+01
         vertex 3.200000e+00 4.000000e+01 -1.500000e+01
      endloop
   endfacet
   facet normal 0.000000e+00 1.000000e+00 0.000000e+00
      outer loop
         vertex 6.401156e-16 4.000000e+01 -2.460000e+01
         vertex -3.200000e+00 4.000000e+01 -4.000000e+01
         vertex -1.293611e-15 4.000000e+01 -1.500000e+01
      endloop
   endfacet
   facet normal 0.000000e+00 1.000000e+00 0.000000e+00
      outer loop
         vertex 1.140530e-15 4.000000e+01 1.500000e+01
         vertex -3.200000e+00 4.000000e+01 4.000000e+01
         vertex 4.523930e-15 4.000000e+01 2.460000e+01
      endloop
   endfacet
   facet normal 0.000000e+00 -1.000000e+00 0.000000e+00
      outer loop
         vertex 7.549517e-15 -4.000000e+01 4.000000e+01
         vertex -3.200000e+00 -4.000000e+01 4.000000e+01
         vertex 4.523930e-15 -4.000000e+01 2.460000e+01
      endloop
   endfacet
   facet normal 0.000000e+00 -1.000000e+00 0.000000e+00
      outer loop
         vertex -3.200000e+00 -4.000000e+01 4.000000e+01
         vertex -3.200000e+00 -4.000000e+01 -4.000000e+01
         vertex -1.145581e-15 -4.000000e+01 -1.500000e+01
      endloop
   endfacet
   facet normal 0.000000e+00 -1.000000e+00 0.000000e+00
      outer loop
         vertex -3.200000e+00 -4.000000e+01 -4.000000e+01
         vertex -7.549517e-15 -4.000000e+01 -4.000000e+01
         vertex -2.601820e-17 -4.000000e+01 -2.460000e+01
      endloop
   endfacet
   facet normal -0.000000e+00 -1.000000e+00 0.000000e+00
      outer loop
         vertex -2.601820e-17 -4.000000e+01 -2.460000e+01
         vertex 6.400000e+00 -4.000000e+01 -1.820000e+01
         vertex 3.200000e+00 -4.000000e+01 -1.500000e+01
      endloop
   endfacet
   facet normal 0.000000e+00 -1.000000e+00 -0.000000e+00
      outer loop
         vertex 6.400000e+00 -4.000000e+01 -1.820000e+01
         vertex 6.400000e+00 -4.000000e+01 -1.180000e+01
         vertex 3.200000e+00 -4.000000e+01 -1.500000e+01
      endloop
   endfacet
   facet normal 0.000000e+00 -1.000000e+00 0.000000e+00
      outer loop
         vertex 6.400000e+00 -4.000000e+01 -1.180000e+01
         vertex 3.200000e+00 -4.000000e+01 -1.180000e+01
         vertex 3.200000e+00 -4.000000e+01 -1.500000e+01
      endloop
   endfacet
   facet normal 0.000000e+00 -1.000000e+00 0.000000e+00
      outer loop
         vertex 3.200000e+00 -4.000000e+01 -1.500000e+01
         vertex -1.145581e-15 -4.000000e+01 -1.500000e+01
         vertex -2.601820e-17 -4.000000e+01 -2.460000e+01
      endloop
   endfacet
   facet normal -0.000000e+00 -1.000000e+00 0.000000e+00
      outer loop
         vertex -1.145581e-15 -4.000000e+01 -1.500000e+01
         vertex 1.140530e-15 -4.000000e+01 1.500000e+01
         vertex -3.200000e+00 -4.000000e+01 4.000000e+01
      endloop
   endfacet
   facet normal 0.000000e+00 -1.000000e+00 0.000000e+00
      outer loop
         vertex 1.140530e-15 -4.000000e+01 1.500000e+01
         vertex 3.200000e+00 -4.000000e+01 1.500000e+01
         vertex 4.523930e-15 -4.000000e+01 2.460000e+01
      endloop
   endfacet
   facet normal 0.000000e+00 -1.000000e+00 0.000000e+00
      outer loop
         vertex 3.200000e+00 -4.000000e+01 1.500000e+01
         vertex 3.200000e+00 -4.000000e+01 1.180000e+01
         vertex 6.400000e+00 -4.000000e+01 1.180000e+01
      endloop
   endfacet
   facet normal 0.000000e+00 -1.000000e+00 -0.000000e+00
      outer loop
         vertex 6.400000e+00 -4.000000e+01 1.180000e+01
         vertex 6.400000e+00 -4.000000e+01 1.820000e+01
         vertex 3.200000e+00 -4.000000e+01 1.500000e+01
      endloop
   endfacet
   facet normal 0.000000e+00 -1.000000e+00 0.000000e+00
      outer loop
         vertex 6.400000e+00 -4.000000e+01 1.820000e+01
         vertex 4.523930e-15 -4.000000e+01 2.460000e+01
         vertex 3.200000e+00 -4.000000e+01 1.500000e+01
      endloop
   endfacet
   facet normal 0.000000e+00 -1.000000e+00 0.000000e+00
      outer loop
         vertex 4.523930e-15 -4.000000e+01 2.460000e+01
         vertex -3.200000e+00 -4.000000e+01 4.000000e+01
         vertex 1.140530e-15 -4.000000e+01 1.500000e+01
      endloop
   endfacet
   facet normal 0.000000e+00 -1.000000e+00 0.000000e+00
      outer loop
         vertex -1.145581e-15 -4.000000e+01 -1.500000e+01
         vertex -3.200000e+00 -4.000000e+01 -4.000000e+01
         vertex -2.601820e-17 -4.000000e+01 -2.460000e+01
      endloop
   endfacet
   facet normal 1.000000e+00 1.339558e-16 -8.113801e-17
      outer loop
         vertex -1.293611e-15 4.000000e+01 -1.500000e+01
         vertex 1.140530e-15 4.000000e+01 1.500000e+01
         vertex 2.220446e-15 3.000000e+01 1.180000e+01
      endloop
   endfacet
   facet normal 1.000000e+00 -0.000000e+00 3.374739e-16
      outer loop
         vertex 1.140530e-15 4.000000e+01 1.500000e+01
         vertex 1.140530e-15 -4.000000e+01 1.500000e+01
         vertex 2.220446e-15 -3.000000e+01 1.180000e+01
      endloop
   endfacet
   facet normal 1.000000e+00 -1.323768e-16 -7.620368e-17
      outer loop
         vertex 1.140530e-15 -4.000000e+01 1.500000e+01
         vertex -1.145581e-15 -4.000000e+01 -1.500000e+01
         vertex 2.220446e-15 -3.000000e+01 1.180000e+01
      endloop
   endfacet
   facet normal 1.000000e+00 1.850371e-18 2.954185e-16
      outer loop
         vertex -1.145581e-15 -4.000000e+01 -1.500000e+01
         vertex -1.293611e-15 4.000000e+01 -1.500000e+01
         vertex -2.220446e-15 3.000000e+01 -1.180000e+01
      endloop
   endfacet
   facet normal 1.000000e+00 0.000000e+00 3.374739e-16
      outer loop
         vertex 2.220446e-15 -3.000000e+01 1.180000e+01
         vertex 2.220446e-15 3.000000e+01 1.180000e+01
         vertex 1.140530e-15 4.000000e+01 1.500000e+01
      endloop
   endfacet
   facet normal 1.000000e+00 -1.528990e-16 -1.881734e-16
      outer loop
         vertex 2.220446e-15 3.000000e+01 1.180000e+01
         vertex -2.220446e-15 3.000000e+01 -1.180000e+01
         vertex -1.293611e-15 4.000000e+01 -1.500000e+01
      endloop
   endfacet
   facet normal 1.000000e+00 -0.000000e+00 3.358954e-16
      outer loop
         vertex -2.220446e-15 3.000000e+01 -1.180000e+01
         vertex -2.220446e-15 -3.000000e+01 -1.180000e+01
         vertex -1.145581e-15 -4.000000e+01 -1.500000e+01
      endloop
   endfacet
   facet normal 1.000000e+00 1.677020e-16 -1.881734e-16
      outer loop
         vertex -2.220446e-15 -3.000000e+01 -1.180000e+01
         vertex 2.220446e-15 -3.000000e+01 1.180000e+01
         vertex -1.145581e-15 -4.000000e+01 -1.500000e+01
      endloop
   endfacet
   facet normal 1.000000e+00 0.000000e+00 -1.964667e-16
      outer loop
         vertex 7.549517e-15 -4.000000e+01 4.000000e+01
         vertex 4.523930e-15 -4.000000e+01 2.460000e+01
         vertex 7.549517e-15 -3.680000e+01 4.000000e+01
      endloop
   endfacet
   facet normal 1.000000e+00 0.000000e+00 -1.964667e-16
      outer loop
         vertex 4.523930e-15 -4.000000e+01 2.460000e+01
         vertex 4.523930e-15 4.000000e+01 2.460000e+01
         vertex 7.549517e-15 3.680000e+01 4.000000e+01
      endloop
   endfacet
   facet normal 1.000000e+00 0.000000e+00 -1.964667e-16
      outer loop
         vertex 4.523930e-15 4.000000e+01 2.460000e+01
         vertex 7.549517e-15 4.000000e+01 4.000000e+01
         vertex 7.549517e-15 3.680000e+01 4.000000e+01
      endloop
   endfacet
   facet normal 1.000000e+00 0.000000e+00 -1.387778e-16
      outer loop
         vertex 7.549517e-15 3.680000e+01 4.000000e+01
         vertex 7.993606e-15 3.680000e+01 4.320000e+01
         vertex 7.993606e-15 -3.680000e+01 4.320000e+01
      endloop
   endfacet
   facet normal 1.000000e+00 0.000000e+00 -1.387778e-16
      outer loop
         vertex 7.993606e-15 -3.680000e+01 4.320000e+01
         vertex 7.549517e-15 -3.680000e+01 4.000000e+01
         vertex 7.549517e-15 3.680000e+01 4.000000e+01
      endloop
   endfacet
   facet normal 1.000000e+00 0.000000e+00 -1.964667e-16
      outer loop
         vertex 7.549517e-15 -3.680000e+01 4.000000e+01
         vertex 4.523930e-15 -4.000000e+01 2.460000e+01
         vertex 7.549517e-15 3.680000e+01 4.000000e+01
      endloop
   endfacet
   facet normal 1.000000e+00 -8.326673e-18 -5.317943e-16
      outer loop
         vertex -7.549517e-15 4.000000e+01 -4.000000e+01
         vertex 6.401156e-16 4.000000e+01 -2.460000e+01
         vertex -2.601820e-17 -4.000000e+01 -2.460000e+01
      endloop
   endfacet
   facet normal 1.000000e+00 0.000000e+00 -4.885389e-16
      outer loop
         vertex -2.601820e-17 -4.000000e+01 -2.460000e+01
         vertex -7.549517e-15 -4.000000e+01 -4.000000e+01
         vertex -7.549517e-15 4.000000e+01 -4.000000e+01
      endloop
   endfacet
   facet normal -0.000000e+00 0.000000e+00 1.000000e+00
      outer loop
         vertex 3.200000e+00 4.000000e+01 -1.500000e+01
         vertex -1.293611e-15 4.000000e+01 -1.500000e+01
         vertex -1.145581e-15 -4.000000e+01 -1.500000e+01
      endloop
   endfacet
   facet normal 0.000000e+00 -0.000000e+00 1.000000e+00
      outer loop
         vertex -1.145581e-15 -4.000000e+01 -1.500000e+01
         vertex 3.200000e+00 -4.000000e+01 -1.500000e+01
         vertex 3.200000e+00 4.000000e+01 -1.500000e+01
      endloop
   endfacet
   facet normal 7.071068e-01 -5.887846e-18 -7.071068e-01
      outer loop
         vertex 6.400000e+00 -4.000000e+01 -1.820000e+01
         vertex -2.601820e-17 -4.000000e+01 -2.460000e+01
         vertex 6.401156e-16 4.000000e+01 -2.460000e+01
      endloop
   endfacet
   facet normal 7.071068e-01 0.000000e+00 -7.071068e-01
      outer loop
         vertex 6.401156e-16 4.000000e+01 -2.460000e+01
         vertex 6.400000e+00 4.000000e+01 -1.820000e+01
         vertex 6.400000e+00 -4.000000e+01 -1.820000e+01
      endloop
   endfacet
   facet normal 7.071068e-01 0.000000e+00 7.071068e-01
      outer loop
         vertex 6.400000e+00 4.000000e+01 1.820000e+01
         vertex 4.523930e-15 4.000000e+01 2.460000e+01
         vertex 4.523930e-15 -4.000000e+01 2.460000e+01
      endloop
   endfacet
   facet normal 7.071068e-01 -0.000000e+00 7.071068e-01
      outer loop
         vertex 4.523930e-15 -4.000000e+01 2.460000e+01
         vertex 6.400000e+00 -4.000000e+01 1.820000e+01
         vertex 6.400000e+00 4.000000e+01 1.820000e+01
      endloop
   endfacet
   facet normal 0.000000e+00 0.000000e+00 -1.000000e+00
      outer loop
         vertex 3.200000e+00 -4.000000e+01 1.500000e+01
         vertex 1.140530e-15 -4.000000e+01 1.500000e+01
         vertex 1.140530e-15 4.000000e+01 1.500000e+01
      endloop
   endfacet
   facet normal -0.000000e+00 -0.000000e+00 -1.000000e+00
      outer loop
         vertex 1.140530e-15 4.000000e+01 1.500000e+01
         vertex 3.200000e+00 4.000000e+01 1.500000e+01
         vertex 3.200000e+00 -4.000000e+01 1.500000e+01
      endloop
   endfacet
   facet normal -1.000000e+00 0.000000e+00 0.000000e+00
      outer loop
         vertex -3.200000e+00 -3.680000e+01 4.000000e+01
         vertex -3.200000e+00 -3.680000e+01 4.320000e+01
         vertex -3.200000e+00 3.680000e+01 4.320000e+01
      endloop
   endfacet
   facet normal -1.000000e+00 0.000000e+00 0.000000e+00
      outer loop
         vertex -3.200000e+00 -3.000000e+01 1.180000e+01
         vertex -3.200000e+00 -4.000000e+01 4.000000e+01
         vertex -3.200000e+00 -3.680000e+01 4.000000e+01
      endloop
   endfacet
   facet normal -1.000000e+00 0.000000e+00 0.000000e+00
      outer loop
         vertex -3.200000e+00 -3.000000e+01 -1.180000e+01
         vertex -3.200000e+00 -4.000000e+01 -4.000000e+01
         vertex -3.200000e+00 -4.000000e+01 4.000000e+01
      endloop
   endfacet
   facet normal -1.000000e+00 0.000000e+00 0.000000e+00
      outer loop
         vertex -3.200000e+00 3.000000e+01 -1.180000e+01
         vertex -3.200000e+00 4.000000e+01 -4.000000e+01
         vertex -3.200000e+00 -4.000000e+01 -4.000000e+01
      endloop
   endfacet
   facet normal -1.000000e+00 0.000000e+00 -0.000000e+00
      outer loop
         vertex -3.200000e+00 3.000000e+01 -1.180000e+01
         vertex -3.200000e+00 4.000000e+01 4.000000e+01
         vertex -3.200000e+00 4.000000e+01 -4.000000e+01
      endloop
   endfacet
   facet normal -1.000000e+00 0.000000e+00 -0.000000e+00
      outer loop
         vertex -3.200000e+00 3.000000e+01 1.180000e+01
         vertex -3.200000e+00 3.680000e+01 4.000000e+01
         vertex -3.200000e+00 4.000000e+01 4.000000e+01
      endloop
   endfacet
   facet normal -1.000000e+00 0.000000e+00 -0.000000e+00
      outer loop
         vertex -3.200000e+00 -3.680000e+01 4.000000e+01
         vertex -3.200000e+00 3.680000e+01 4.320000e+01
         vertex -3.200000e+00 3.680000e+01 4.000000e+01
      endloop
   endfacet
   facet normal -1.000000e+00 0.000000e+00 -0.000000e+00
      outer loop
         vertex -3.200000e+00 -4.000000e+01 -4.000000e+01
         vertex -3.200000e+00 -3.000000e+01 -1.180000e+01
         vertex -3.200000e+00 3.000000e+01 -1.180000e+01
      endloop
   endfacet
   facet normal -1.000000e+00 -0.000000e+00 -0.000000e+00
      outer loop
         vertex -3.200000e+00 -4.000000e+01 4.000000e+01
         vertex -3.200000e+00 -3.000000e+01 1.180000e+01
         vertex -3.200000e+00 -3.000000e+01 -1.180000e+01
      endloop
   endfacet
   facet normal -1.000000e+00 0.000000e+00 0.000000e+00
      outer loop
         vertex -3.200000e+00 -3.680000e+01 4.000000e+01
         vertex -3.200000e+00 3.000000e+01 1.180000e+01
         vertex -3.200000e+00 -3.000000e+01 1.180000e+01
      endloop
   endfacet
   facet normal -1.000000e+00 0.000000e+00 0.000000e+00
      outer loop
         vertex -3.200000e+00 4.000000e+01 4.000000e+01
         vertex -3.200000e+00 3.000000e+01 -1.180000e+01
         vertex -3.200000e+00 3.000000e+01 1.180000e+01
      endloop
   endfacet
   facet normal -1.000000e+00 -0.000000e+00 0.000000e+00
      outer loop
         vertex -3.200000e+00 -3.680000e+01 4.000000e+01
         vertex -3.200000e+00 3.680000e+01 4.000000e+01
         vertex -3.200000e+00 3.000000e+01 1.180000e+01
      endloop
   endfacet
   facet normal -0.000000e+00 0.000000e+00 1.000000e+00
      outer loop
         vertex 7.549517e-15 4.000000e+01 4.000000e+01
         vertex -3.200000e+00 4.000000e+01 4.000000e+01
         vertex -3.200000e+00 3.680000e+01 4.000000e+01
      endloop
   endfacet
   facet normal 0.000000e+00 -0.000000e+00 1.000000e+00
      outer loop
         vertex -3.200000e+00 3.680000e+01 4.000000e+01
         vertex 7.549517e-15 3.680000e+01 4.000000e+01
         vertex 7.549517e-15 4.000000e+01 4.000000e+01
      endloop
   endfacet
   facet normal 1.000000e+00 -0.000000e+00 0.000000e+00
      outer loop
         vertex 6.400000e+00 4.000000e+01 1.820000e+01
         vertex 6.400000e+00 -4.000000e+01 1.820000e+01
         vertex 6.400000e+00 -4.000000e+01 1.180000e+01
      endloop
   endfacet
   facet normal 1.000000e+00 0.000000e+00 -0.000000e+00
      outer loop
         vertex 6.400000e+00 -4.000000e+01 1.180000e+01
         vertex 6.400000e+00 4.000000e+01 1.180000e+01
         vertex 6.400000e+00 4.000000e+01 1.820000e+01
      endloop
   endfacet
   facet normal 0.000000e+00 0.000000e+00 -1.000000e+00
      outer loop
         vertex 6.400000e+00 4.000000e+01 1.180000e+01
         vertex 6.400000e+00 -4.000000e+01 1.180000e+01
         vertex 3.200000e+00 -4.000000e+01 1.180000e+01
      endloop
   endfacet
   facet normal 0.000000e+00 0.000000e+00 -1.000000e+00
      outer loop
         vertex 3.200000e+00 -4.000000e+01 1.180000e+01
         vertex 3.200000e+00 4.000000e+01 1.180000e+01
         vertex 6.400000e+00 4.000000e+01 1.180000e+01
      endloop
   endfacet
   facet normal -1.000000e+00 0.000000e+00 0.000000e+00
      outer loop
         vertex 3.200000e+00 4.000000e+01 1.180000e+01
         vertex 3.200000e+00 -4.000000e+01 1.180000e+01
         vertex 3.200000e+00 -4.000000e+01 1.500000e+01
      endloop
   endfacet
   facet normal -1.000000e+00 -0.000000e+00 -0.000000e+00
      outer loop
         vertex 3.200000e+00 -4.000000e+01 1.500000e+01
         vertex 3.200000e+00 4.000000e+01 1.500000e+01
         vertex 3.200000e+00 4.000000e+01 1.180000e+01
      endloop
   endfacet
   facet normal -1.000000e+00 0.000000e+00 0.000000e+00
      outer loop
         vertex 3.200000e+00 4.000000e+01 -1.500000e+01
         vertex 3.200000e+00 -4.000000e+01 -1.500000e+01
         vertex 3.200000e+00 -4.000000e+01 -1.180000e+01
      endloop
   endfacet
   facet normal -1.000000e+00 -0.000000e+00 -0.000000e+00
      outer loop
         vertex 3.200000e+00 -4.000000e+01 -1.180000e+01
         vertex 3.200000e+00 4.000000e+01 -1.180000e+01
         vertex 3.200000e+00 4.000000e+01 -1.500000e+01
      endloop
   endfacet
   facet normal 0.000000e+00 0.000000e+00 1.000000e+00
      outer loop
         vertex 3.200000e+00 4.000000e+01 -1.180000e+01
         vertex 3.200000e+00 -4.000000e+01 -1.180000e+01
         vertex 6.400000e+00 -4.000000e+01 -1.180000e+01
      endloop
   endfacet
   facet normal 0.000000e+00 0.000000e+00 1.000000e+00
      outer loop
         vertex 6.400000e+00 -4.000000e+01 -1.180000e+01
         vertex 6.400000e+00 4.000000e+01 -1.180000e+01
         vertex 3.200000e+00 4.000000e+01 -1.180000e+01
      endloop
   endfacet
   facet normal 1.000000e+00 -0.000000e+00 0.000000e+00
      outer loop
         vertex 6.400000e+00 4.000000e+01 -1.180000e+01
         vertex 6.400000e+00 -4.000000e+01 -1.180000e+01
         vertex 6.400000e+00 -4.000000e+01 -1.820000e+01
      endloop
   endfacet
   facet normal 1.000000e+00 0.000000e+00 -0.000000e+00
      outer loop
         vertex 6.400000e+00 -4.000000e+01 -1.820000e+01
         vertex 6.400000e+00 4.000000e+01 -1.820000e+01
         vertex 6.400000e+00 4.000000e+01 -1.180000e+01
      endloop
   endfacet
   facet normal 0.000000e+00 0.000000e+00 -1.000000e+00
      outer loop
         vertex -7.549517e-15 -4.000000e+01 -4.000000e+01
         vertex -3.200000e+00 -4.000000e+01 -4.000000e+01
         vertex -3.200000e+00 4.000000e+01 -4.000000e+01
      endloop
   endfacet
   facet normal -0.000000e+00 -0.000000e+00 -1.000000e+00
      outer loop
         vertex -3.200000e+00 4.000000e+01 -4.000000e+01
         vertex -7.549517e-15 4.000000e+01 -4.000000e+01
         vertex -7.549517e-15 -4.000000e+01 -4.000000e+01
      endloop
   endfacet
   facet normal -0.000000e+00 0.000000e+00 1.000000e+00
      outer loop
         vertex 7.549517e-15 -3.680000e+01 4.000000e+01
         vertex -3.200000e+00 -3.680000e+01 4.000000e+01
         vertex -3.200000e+00 -4.000000e+01 4.000000e+01
      endloop
   endfacet
   facet normal 0.000000e+00 -0.000000e+00 1.000000e+00
      outer loop
         vertex -3.200000e+00 -4.000000e+01 4.000000e+01
         vertex 7.549517e-15 -4.000000e+01 4.000000e+01
         vertex 7.549517e-15 -3.680000e+01 4.000000e+01
      endloop
   endfacet
   facet normal 0.000000e+00 -1.000000e+00 0.000000e+00
      outer loop
         vertex -3.200000e+00 3.000000e+01 1.180000e+01
         vertex -3.200000e+00 3.000000e+01 -1.180000e+01
         vertex -2.220446e-15 3.000000e+01 -1.180000e+01
      endloop
   endfacet
   facet normal -0.000000e+00 -1.000000e+00 0.000000e+00
      outer loop
         vertex -2.220446e-15 3.000000e+01 -1.180000e+01
         vertex 2.220446e-15 3.000000e+01 1.180000e+01
         vertex -3.200000e+00 3.000000e+01 1.180000e+01
      endloop
   endfacet
   facet normal 0.000000e+00 0.000000e+00 1.000000e+00
      outer loop
         vertex -3.200000e+00 3.000000e+01 -1.180000e+01
         vertex -3.200000e+00 -3.000000e+01 -1.180000e+01
         vertex -2.220446e-15 -3.000000e+01 -1.180000e+01
      endloop
   endfacet
   facet normal 0.000000e+00 0.000000e+00 1.000000e+00
      outer loop
         vertex -2.220446e-15 -3.000000e+01 -1.180000e+01
         vertex -2.220446e-15 3.000000e+01 -1.180000e+01
         vertex -3.200000e+00 3.000000e+01 -1.180000e+01
      endloop
   endfacet
   facet normal -0.000000e+00 1.000000e+00 0.000000e+00
      outer loop
         vertex -3.200000e+00 -3.000000e+01 -1.180000e+01
         vertex -3.200000e+00 -3.000000e+01 1.180000e+01
         vertex 2.220446e-15 -3.000000e+01 1.180000e+01
      endloop
   endfacet
   facet normal 0.000000e+00 1.000000e+00 -0.000000e+00
      outer loop
         vertex 2.220446e-15 -3.000000e+01 1.180000e+01
         vertex -2.220446e-15 -3.000000e+01 -1.180000e+01
         vertex -3.200000e+00 -3.000000e+01 -1.180000e+01
      endloop
   endfacet
   facet normal 0.000000e+00 0.000000e+00 -1.000000e+00
      outer loop
         vertex -3.200000e+00 -3.000000e+01 1.180000e+01
         vertex -3.200000e+00 3.000000e+01 1.180000e+01
         vertex 2.220446e-15 3.000000e+01 1.180000e+01
      endloop
   endfacet
   facet normal 0.000000e+00 0.000000e+00 -1.000000e+00
      outer loop
         vertex 2.220446e-15 3.000000e+01 1.180000e+01
         vertex 2.220446e-15 -3.000000e+01 1.180000e+01
         vertex -3.200000e+00 -3.000000e+01 1.180000e+01
      endloop
   endfacet
   facet normal 0.000000e+00 1.000000e+00 0.000000e+00
      outer loop
         vertex 7.549517e-15 3.680000e+01 4.000000e+01
         vertex -3.200000e+00 3.680000e+01 4.000000e+01
         vertex -3.200000e+00 3.680000e+01 4.320000e+01
      endloop
   endfacet
   facet normal 0.000000e+00 1.000000e+00 0.000000e+00
      outer loop
         vertex -3.200000e+00 3.680000e+01 4.320000e+01
         vertex 7.993606e-15 3.680000e+01 4.320000e+01
         vertex 7.549517e-15 3.680000e+01 4.000000e+01
      endloop
   endfacet
   facet normal -0.000000e+00 0.000000e+00 1.000000e+00
      outer loop
         vertex 7.993606e-15 3.680000e+01 4.320000e+01
         vertex -3.200000e+00 3.680000e+01 4.320000e+01
         vertex -3.200000e+00 -3.680000e+01 4.320000e+01
      endloop
   endfacet
   facet normal 0.000000e+00 -0.000000e+00 1.000000e+00
      outer loop
         vertex -3.200000e+00 -3.680000e+01 4.320000e+01
         vertex 7.993606e-15 -3.680000e+01 4.320000e+01
         vertex 7.993606e-15 3.680000e+01 4.320000e+01
      endloop
   endfacet
   facet normal 0.000000e+00 -1.000000e+00 0.000000e+00
      outer loop
         vertex 7.993606e-15 -3.680000e+01 4.320000e+01
         vertex -3.200000e+00 -3.680000e+01 4.320000e+01
         vertex -3.200000e+00 -3.680000e+01 4.000000e+01
      endloop
   endfacet
   facet normal 0.000000e+00 -1.000000e+00 0.000000e+00
      outer loop
         vertex -3.200000e+00 -3.680000e+01 4.000000e+01
         vertex 7.549517e-15 -3.680000e+01 4.000000e+01
         vertex 7.993606e-15 -3.680000e+01 4.320000e+01
      endloop
   endfacet
endsolid
